<svg width="32" height="32" viewBox="0 0 32 32" fill="none" xmlns="http://www.w3.org/2000/svg">
<path d="M8.45687 19.6374L4.6862 23.4094L9.39954 28.1227L27.3129 10.2094L22.5995 5.49475L19.7715 8.32408L21.6569 10.2094L19.7715 12.0947L17.8849 10.2094L15.0569 13.0374L17.8849 15.8667L15.9995 17.7521L13.1729 14.9241L10.3435 17.7507L12.2302 19.6374L10.3435 21.5227L8.45687 19.6374ZM23.5422 2.66675L30.1422 9.26675C30.3922 9.51679 30.5326 9.85586 30.5326 10.2094C30.5326 10.563 30.3922 10.902 30.1422 11.1521L10.3422 30.9521C10.0922 31.202 9.75309 31.3425 9.39954 31.3425C9.04598 31.3425 8.70691 31.202 8.45687 30.9521L1.85687 24.3521C1.7329 24.2282 1.63456 24.0812 1.56746 23.9193C1.50036 23.7575 1.46582 23.584 1.46582 23.4087C1.46582 23.2335 1.50036 23.06 1.56746 22.8982C1.63456 22.7363 1.7329 22.5892 1.85687 22.4654L21.6569 2.66675C21.9069 2.41679 22.246 2.27637 22.5995 2.27637C22.9531 2.27637 23.2922 2.41679 23.5422 2.66675Z" fill="#FF5631"/>
</svg>
