<svg width="308" height="122" viewBox="0 0 308 122" fill="none" xmlns="http://www.w3.org/2000/svg">
<g clip-path="url(#clip0_1730_5049)">
<path d="M308 16.7336C308 16.7336 308 5.43758 308 2.55929C308 -0.319004 305.106 -0.984252 302.212 1.67344C299.318 4.33112 286 16.7336 286 16.7336L308 16.7336Z" fill="#FCFCFC"/>
</g>
<path d="M0 32C0 23.1634 7.16344 16 16 16H308V106C308 114.837 300.837 122 292 122H16C7.16345 122 0 114.837 0 106V32Z" fill="#FCFCFC"/>
<path d="M32.1953 50.3594C32.1953 51.4844 32.5781 52.2891 33.3438 52.7734C34.1094 53.2578 35.2109 53.5 36.6484 53.5H39.3203V47.0078H36.6484C33.6797 47.0078 32.1953 48.125 32.1953 50.3594ZM30.0625 61L33.6719 55.0469C31.2656 54.4062 30.0625 52.8438 30.0625 50.3594C30.0625 48.5781 30.6406 47.2656 31.7969 46.4219C32.9688 45.5625 34.5781 45.1328 36.625 45.1328H41.3125V61H39.3203V55.375H36.625C36.25 55.375 35.9766 55.3672 35.8047 55.3516L32.3828 61H30.0625ZM49.9844 57.4141H51.9766C51.9766 58.0391 52.2109 58.5625 52.6797 58.9844C53.1641 59.3906 53.8281 59.5938 54.6719 59.5938C55.5312 59.5938 56.1875 59.4219 56.6406 59.0781C57.1094 58.7188 57.3438 58.2266 57.3438 57.6016C57.3438 57.1641 57.125 56.7891 56.6875 56.4766C56.25 56.1641 55.7031 55.9922 55.0469 55.9609H53.2656V54.2031H54.6719C55.4531 54.1875 56.0547 54.0234 56.4766 53.7109C56.8984 53.3984 57.1094 52.9766 57.1094 52.4453C57.1094 51.8984 56.8984 51.4688 56.4766 51.1562C56.0703 50.8438 55.4688 50.6875 54.6719 50.6875C53.8594 50.6875 53.2422 50.8906 52.8203 51.2969C52.4141 51.7031 52.2109 52.2266 52.2109 52.8672H50.2188C50.2188 51.8047 50.5703 50.9062 51.2734 50.1719C51.9922 49.4219 53.125 49.0469 54.6719 49.0469C56.0625 49.0469 57.1484 49.3516 57.9297 49.9609C58.7266 50.5703 59.125 51.3984 59.125 52.4453C59.125 53.6797 58.375 54.5234 56.875 54.9766C58.5312 55.4141 59.3594 56.3672 59.3594 57.8359C59.3594 58.8828 58.9453 59.7109 58.1172 60.3203C57.3047 60.9297 56.1562 61.2344 54.6719 61.2344C53.0781 61.2344 51.8984 60.8594 51.1328 60.1094C50.3672 59.3594 49.9844 58.4609 49.9844 57.4141ZM69.9062 55.0703C69.9062 56.3672 70.1797 57.4453 70.7266 58.3047C71.2891 59.1641 72.1172 59.5938 73.2109 59.5938C74.1953 59.5938 75.0078 59.1719 75.6484 58.3281C76.2891 57.4688 76.6094 56.3828 76.6094 55.0703C76.6094 53.7422 76.2969 52.6797 75.6719 51.8828C75.0625 51.0859 74.2422 50.6875 73.2109 50.6875C72.1328 50.6875 71.3125 51.125 70.75 52C70.1875 52.8594 69.9062 53.8828 69.9062 55.0703ZM68.0312 65.1484V49.2812H69.6719L69.8359 51.1562C70.6797 49.75 71.8906 49.0469 73.4688 49.0469C74.9844 49.0469 76.2188 49.6016 77.1719 50.7109C78.1406 51.8203 78.625 53.2734 78.625 55.0703C78.625 56.8516 78.125 58.3281 77.125 59.5C76.1406 60.6562 74.9219 61.2344 73.4688 61.2344C71.9219 61.2344 70.7344 60.5703 69.9062 59.2422V65.1484H68.0312ZM83.4297 51.8828C82.8203 52.6797 82.5156 53.7422 82.5156 55.0703C82.5156 56.3984 82.8203 57.4844 83.4297 58.3281C84.0547 59.1719 84.8828 59.5938 85.9141 59.5938C86.9141 59.5938 87.7031 59.1953 88.2812 58.3984C88.875 57.6016 89.1875 56.5625 89.2188 55.2812V55.0703C89.2188 53.7422 88.9219 52.6797 88.3281 51.8828C87.75 51.0859 86.9453 50.6875 85.9141 50.6875C84.8828 50.6875 84.0547 51.0859 83.4297 51.8828ZM81.9531 59.5C80.9844 58.3438 80.5 56.8672 80.5 55.0703C80.5 53.2734 80.9766 51.8203 81.9297 50.7109C82.8984 49.6016 84.1406 49.0469 85.6562 49.0469C87.1719 49.0469 88.375 49.7656 89.2656 51.2031L89.4531 49.2812H91.0938V61H89.4531L89.2422 59.0078C88.3359 60.4922 87.1406 61.2344 85.6562 61.2344C84.1562 61.2344 82.9219 60.6562 81.9531 59.5ZM96.25 59.2422H101.641V51.0391H97.1875V52.5156C97.1875 54.2969 96.875 56.5391 96.25 59.2422ZM92.9688 59.2422H94.3516C94.9922 56.6797 95.3125 54.2266 95.3125 51.8828V49.2812H103.516V59.2422H105.391V65.1484H103.516V61H94.8438V65.1484H92.9688V59.2422ZM107.5 61V49.2812H109.375V61H107.5ZM107.477 47.2188C107.227 46.9688 107.102 46.6406 107.102 46.2344C107.102 45.8281 107.227 45.5078 107.477 45.2734C107.727 45.0234 108.047 44.8984 108.438 44.8984C108.828 44.8984 109.148 45.0234 109.398 45.2734C109.648 45.5078 109.773 45.8281 109.773 46.2344C109.773 46.6406 109.648 46.9688 109.398 47.2188C109.148 47.4531 108.828 47.5703 108.438 47.5703C108.047 47.5703 107.727 47.4531 107.477 47.2188ZM111.953 55.0703C111.953 53.1953 112.461 51.7266 113.477 50.6641C114.492 49.5859 115.82 49.0469 117.461 49.0469C119.086 49.0469 120.32 49.6016 121.164 50.7109C121.711 51.4453 121.984 52.2812 121.984 53.2188H119.992C119.992 52.5312 119.812 51.9766 119.453 51.5547C118.984 50.9766 118.281 50.6875 117.344 50.6875C116.375 50.6875 115.57 51.0781 114.93 51.8594C114.289 52.625 113.969 53.6953 113.969 55.0703C113.969 56.4609 114.289 57.5625 114.93 58.375C115.586 59.1875 116.391 59.5938 117.344 59.5938C118.281 59.5938 118.992 59.2969 119.477 58.7031C119.852 58.2344 120.039 57.6719 120.039 57.0156H122.031C122.031 58.0469 121.766 58.9062 121.234 59.5938C120.391 60.6875 119.133 61.2344 117.461 61.2344C115.836 61.2344 114.508 60.6797 113.477 59.5703C112.461 58.4609 111.953 56.9609 111.953 55.0703ZM122.969 51.0391V49.2812H133.281V51.0391H129.062V61H127.188V51.0391H122.969ZM141.602 55.0234C141.602 56.3516 141.93 57.4453 142.586 58.3047C143.258 59.1641 144.141 59.5938 145.234 59.5938C146.328 59.5938 147.203 59.1641 147.859 58.3047C148.531 57.4453 148.867 56.3516 148.867 55.0234C148.867 53.7109 148.539 52.6641 147.883 51.8828C147.227 51.0859 146.344 50.6875 145.234 50.6875C144.125 50.6875 143.242 51.0859 142.586 51.8828C141.93 52.6641 141.602 53.7109 141.602 55.0234ZM135.391 61V49.2812H137.266V53.9688H139.656C139.859 52.4531 140.453 51.2578 141.438 50.3828C142.422 49.4922 143.68 49.0469 145.211 49.0469C146.914 49.0469 148.281 49.5938 149.312 50.6875C150.344 51.7812 150.859 53.2266 150.859 55.0234C150.859 56.8359 150.336 58.3281 149.289 59.5C148.258 60.6562 146.898 61.2344 145.211 61.2344C143.633 61.2344 142.336 60.7266 141.32 59.7109C140.305 58.6953 139.734 57.3672 139.609 55.7266H137.266V61H135.391ZM161.406 54.3203H164.477C165.93 54.3203 166.656 53.7344 166.656 52.5625C166.656 51.5469 165.852 51.0391 164.242 51.0391H161.406V54.3203ZM161.406 59.2422H164.453C165.25 59.2422 165.852 59.0859 166.258 58.7734C166.68 58.4609 166.891 58.0312 166.891 57.4844C166.891 57 166.688 56.6094 166.281 56.3125C165.875 56 165.273 55.8438 164.477 55.8438H161.406V59.2422ZM159.531 61V49.2812H164.453C165.734 49.2812 166.758 49.5703 167.523 50.1484C168.289 50.7266 168.672 51.4922 168.672 52.4453C168.672 53.7109 167.945 54.5625 166.492 55C168.102 55.4375 168.906 56.3828 168.906 57.8359C168.906 58.7891 168.523 59.5547 167.758 60.1328C166.992 60.7109 165.969 61 164.688 61H159.531ZM171.484 61V49.2812H173.359V61H171.484ZM171.461 47.2188C171.211 46.9688 171.086 46.6406 171.086 46.2344C171.086 45.8281 171.211 45.5078 171.461 45.2734C171.711 45.0234 172.031 44.8984 172.422 44.8984C172.812 44.8984 173.133 45.0234 173.383 45.2734C173.633 45.5078 173.758 45.8281 173.758 46.2344C173.758 46.6406 173.633 46.9688 173.383 47.2188C173.133 47.4531 172.812 47.5703 172.422 47.5703C172.031 47.5703 171.711 47.4531 171.461 47.2188ZM178.516 59.2422H183.906V51.0391H179.453V52.5156C179.453 54.2969 179.141 56.5391 178.516 59.2422ZM175.234 59.2422H176.617C177.258 56.6797 177.578 54.2266 177.578 51.8828V49.2812H185.781V59.2422H187.656V65.1484H185.781V61H177.109V65.1484H175.234V59.2422ZM189.766 61V49.2812H199.609V61H197.734V51.0391H191.641V61H189.766ZM204.18 55.0703C204.18 56.3984 204.508 57.4844 205.164 58.3281C205.836 59.1719 206.719 59.5938 207.812 59.5938C208.906 59.5938 209.781 59.1719 210.438 58.3281C211.109 57.4844 211.445 56.3984 211.445 55.0703C211.445 53.7578 211.117 52.7031 210.461 51.9062C209.805 51.0938 208.922 50.6875 207.812 50.6875C206.703 50.6875 205.82 51.0938 205.164 51.9062C204.508 52.7031 204.18 53.7578 204.18 55.0703ZM203.734 59.5234C202.703 58.3672 202.188 56.8828 202.188 55.0703C202.188 53.2578 202.695 51.8047 203.711 50.7109C204.742 49.6016 206.109 49.0469 207.812 49.0469C209.516 49.0469 210.875 49.6016 211.891 50.7109C212.922 51.8047 213.438 53.2578 213.438 55.0703C213.438 56.8828 212.922 58.3672 211.891 59.5234C210.859 60.6641 209.5 61.2344 207.812 61.2344C206.125 61.2344 204.766 60.6641 203.734 59.5234ZM217.891 54.3203H220.961C222.414 54.3203 223.141 53.7344 223.141 52.5625C223.141 51.5469 222.336 51.0391 220.727 51.0391H217.891V54.3203ZM217.891 59.2422H220.938C221.734 59.2422 222.336 59.0859 222.742 58.7734C223.164 58.4609 223.375 58.0312 223.375 57.4844C223.375 57 223.172 56.6094 222.766 56.3125C222.359 56 221.758 55.8438 220.961 55.8438H217.891V59.2422ZM216.016 61V49.2812H220.938C222.219 49.2812 223.242 49.5703 224.008 50.1484C224.773 50.7266 225.156 51.4922 225.156 52.4453C225.156 53.7109 224.43 54.5625 222.977 55C224.586 55.4375 225.391 56.3828 225.391 57.8359C225.391 58.7891 225.008 59.5547 224.242 60.1328C223.477 60.7109 222.453 61 221.172 61H216.016ZM227.969 61V49.2812H229.844V61H227.969ZM227.945 47.2188C227.695 46.9688 227.57 46.6406 227.57 46.2344C227.57 45.8281 227.695 45.5078 227.945 45.2734C228.195 45.0234 228.516 44.8984 228.906 44.8984C229.297 44.8984 229.617 45.0234 229.867 45.2734C230.117 45.5078 230.242 45.8281 230.242 46.2344C230.242 46.6406 230.117 46.9688 229.867 47.2188C229.617 47.4531 229.297 47.5703 228.906 47.5703C228.516 47.5703 228.195 47.4531 227.945 47.2188ZM233.125 61V49.2812H235.234L238.867 55.2578L242.5 49.2812H244.609V61H242.734V52.2812L239.477 57.6719H238.258L235 52.3281V61H233.125ZM253.984 61V49.2812H255.859V53.9688H262.188V49.2812H264.062V61H262.188V55.7266H255.859V61H253.984ZM269.57 51.8828C268.961 52.6797 268.656 53.7422 268.656 55.0703C268.656 56.3984 268.961 57.4844 269.57 58.3281C270.195 59.1719 271.023 59.5938 272.055 59.5938C273.055 59.5938 273.844 59.1953 274.422 58.3984C275.016 57.6016 275.328 56.5625 275.359 55.2812V55.0703C275.359 53.7422 275.062 52.6797 274.469 51.8828C273.891 51.0859 273.086 50.6875 272.055 50.6875C271.023 50.6875 270.195 51.0859 269.57 51.8828ZM268.094 59.5C267.125 58.3438 266.641 56.8672 266.641 55.0703C266.641 53.2734 267.117 51.8203 268.07 50.7109C269.039 49.6016 270.281 49.0469 271.797 49.0469C273.312 49.0469 274.516 49.7656 275.406 51.2031L275.594 49.2812H277.234V61H275.594L275.383 59.0078C274.477 60.4922 273.281 61.2344 271.797 61.2344C270.297 61.2344 269.062 60.6562 268.094 59.5ZM56.1016 83.3203H59.1719C60.625 83.3203 61.3516 82.7344 61.3516 81.5625C61.3516 80.5469 60.5469 80.0391 58.9375 80.0391H56.1016V83.3203ZM56.1016 88.2422H59.1484C59.9453 88.2422 60.5469 88.0859 60.9531 87.7734C61.375 87.4609 61.5859 87.0312 61.5859 86.4844C61.5859 86 61.3828 85.6094 60.9766 85.3125C60.5703 85 59.9688 84.8438 59.1719 84.8438H56.1016V88.2422ZM54.2266 90V78.2812H59.1484C60.4297 78.2812 61.4531 78.5703 62.2188 79.1484C62.9844 79.7266 63.3672 80.4922 63.3672 81.4453C63.3672 82.7109 62.6406 83.5625 61.1875 84C62.7969 84.4375 63.6016 85.3828 63.6016 86.8359C63.6016 87.7891 63.2188 88.5547 62.4531 89.1328C61.6875 89.7109 60.6641 90 59.3828 90H54.2266ZM65.4766 84.0703C65.4766 82.1953 65.9844 80.7266 67 79.6641C68.0156 78.5859 69.3438 78.0469 70.9844 78.0469C72.6094 78.0469 73.8438 78.6016 74.6875 79.7109C75.2344 80.4453 75.5078 81.2812 75.5078 82.2188H73.5156C73.5156 81.5312 73.3359 80.9766 72.9766 80.5547C72.5078 79.9766 71.8047 79.6875 70.8672 79.6875C69.8984 79.6875 69.0938 80.0781 68.4531 80.8594C67.8125 81.625 67.4922 82.6953 67.4922 84.0703C67.4922 85.4609 67.8125 86.5625 68.4531 87.375C69.1094 88.1875 69.9141 88.5938 70.8672 88.5938C71.8047 88.5938 72.5156 88.2969 73 87.7031C73.375 87.2344 73.5625 86.6719 73.5625 86.0156H75.5547C75.5547 87.0469 75.2891 87.9062 74.7578 88.5938C73.9141 89.6875 72.6562 90.2344 70.9844 90.2344C69.3594 90.2344 68.0312 89.6797 67 88.5703C65.9844 87.4609 65.4766 85.9609 65.4766 84.0703ZM78.1328 90V78.2812H80.0078V90H78.1328ZM78.1094 76.2188C77.8594 75.9688 77.7344 75.6406 77.7344 75.2344C77.7344 74.8281 77.8594 74.5078 78.1094 74.2734C78.3594 74.0234 78.6797 73.8984 79.0703 73.8984C79.4609 73.8984 79.7812 74.0234 80.0312 74.2734C80.2812 74.5078 80.4062 74.8281 80.4062 75.2344C80.4062 75.6406 80.2812 75.9688 80.0312 76.2188C79.7812 76.4531 79.4609 76.5703 79.0703 76.5703C78.6797 76.5703 78.3594 76.4531 78.1094 76.2188ZM88.2109 80.0391V78.2812H98.5234V80.0391H94.3047V90H92.4297V80.0391H88.2109ZM102.508 83.3203H105.578C107.031 83.3203 107.758 82.7344 107.758 81.5625C107.758 80.5469 106.953 80.0391 105.344 80.0391H102.508V83.3203ZM102.508 88.2422H105.555C106.352 88.2422 106.953 88.0859 107.359 87.7734C107.781 87.4609 107.992 87.0312 107.992 86.4844C107.992 86 107.789 85.6094 107.383 85.3125C106.977 85 106.375 84.8438 105.578 84.8438H102.508V88.2422ZM100.633 90V78.2812H105.555C106.836 78.2812 107.859 78.5703 108.625 79.1484C109.391 79.7266 109.773 80.4922 109.773 81.4453C109.773 82.7109 109.047 83.5625 107.594 84C109.203 84.4375 110.008 85.3828 110.008 86.8359C110.008 87.7891 109.625 88.5547 108.859 89.1328C108.094 89.7109 107.07 90 105.789 90H100.633ZM113.875 84.0703C113.875 85.3984 114.203 86.4844 114.859 87.3281C115.531 88.1719 116.414 88.5938 117.508 88.5938C118.602 88.5938 119.477 88.1719 120.133 87.3281C120.805 86.4844 121.141 85.3984 121.141 84.0703C121.141 82.7578 120.812 81.7031 120.156 80.9062C119.5 80.0938 118.617 79.6875 117.508 79.6875C116.398 79.6875 115.516 80.0938 114.859 80.9062C114.203 81.7031 113.875 82.7578 113.875 84.0703ZM113.43 88.5234C112.398 87.3672 111.883 85.8828 111.883 84.0703C111.883 82.2578 112.391 80.8047 113.406 79.7109C114.438 78.6016 115.805 78.0469 117.508 78.0469C119.211 78.0469 120.57 78.6016 121.586 79.7109C122.617 80.8047 123.133 82.2578 123.133 84.0703C123.133 85.8828 122.617 87.3672 121.586 88.5234C120.555 89.6641 119.195 90.2344 117.508 90.2344C115.82 90.2344 114.461 89.6641 113.43 88.5234ZM127.562 76.2188C127.312 75.9688 127.188 75.6406 127.188 75.2344C127.188 74.8281 127.312 74.5078 127.562 74.2734C127.812 74.0234 128.133 73.8984 128.523 73.8984C128.914 73.8984 129.234 74.0234 129.484 74.2734C129.734 74.5078 129.859 74.8281 129.859 75.2344C129.859 75.6406 129.734 75.9688 129.484 76.2188C129.234 76.4531 128.914 76.5703 128.523 76.5703C128.133 76.5703 127.812 76.4531 127.562 76.2188ZM125.711 90V78.2812H127.586V90H125.711ZM123.812 76.2188C123.562 75.9688 123.438 75.6406 123.438 75.2344C123.438 74.8281 123.562 74.5078 123.812 74.2734C124.062 74.0234 124.383 73.8984 124.773 73.8984C125.164 73.8984 125.484 74.0234 125.734 74.2734C125.984 74.5078 126.109 74.8281 126.109 75.2344C126.109 75.6406 125.984 75.9688 125.734 76.2188C125.484 76.4531 125.164 76.5703 124.773 76.5703C124.383 76.5703 124.062 76.4531 123.812 76.2188ZM136.258 86.4141H138.25C138.25 87.0391 138.484 87.5625 138.953 87.9844C139.438 88.3906 140.102 88.5938 140.945 88.5938C141.805 88.5938 142.461 88.4219 142.914 88.0781C143.383 87.7188 143.617 87.2266 143.617 86.6016C143.617 86.1641 143.398 85.7891 142.961 85.4766C142.523 85.1641 141.977 84.9922 141.32 84.9609H139.539V83.2031H140.945C141.727 83.1875 142.328 83.0234 142.75 82.7109C143.172 82.3984 143.383 81.9766 143.383 81.4453C143.383 80.8984 143.172 80.4688 142.75 80.1562C142.344 79.8438 141.742 79.6875 140.945 79.6875C140.133 79.6875 139.516 79.8906 139.094 80.2969C138.688 80.7031 138.484 81.2266 138.484 81.8672H136.492C136.492 80.8047 136.844 79.9062 137.547 79.1719C138.266 78.4219 139.398 78.0469 140.945 78.0469C142.336 78.0469 143.422 78.3516 144.203 78.9609C145 79.5703 145.398 80.3984 145.398 81.4453C145.398 82.6797 144.648 83.5234 143.148 83.9766C144.805 84.4141 145.633 85.3672 145.633 86.8359C145.633 87.8828 145.219 88.7109 144.391 89.3203C143.578 89.9297 142.43 90.2344 140.945 90.2344C139.352 90.2344 138.172 89.8594 137.406 89.1094C136.641 88.3594 136.258 87.4609 136.258 86.4141ZM150.438 80.8828C149.828 81.6797 149.523 82.7422 149.523 84.0703C149.523 85.3984 149.828 86.4844 150.438 87.3281C151.062 88.1719 151.891 88.5938 152.922 88.5938C153.922 88.5938 154.711 88.1953 155.289 87.3984C155.883 86.6016 156.195 85.5625 156.227 84.2812V84.0703C156.227 82.7422 155.93 81.6797 155.336 80.8828C154.758 80.0859 153.953 79.6875 152.922 79.6875C151.891 79.6875 151.062 80.0859 150.438 80.8828ZM148.961 88.5C147.992 87.3438 147.508 85.8672 147.508 84.0703C147.508 82.2734 147.984 80.8203 148.938 79.7109C149.906 78.6016 151.148 78.0469 152.664 78.0469C154.18 78.0469 155.383 78.7656 156.273 80.2031L156.461 78.2812H158.102V90H156.461L156.25 88.0078C155.344 89.4922 154.148 90.2344 152.664 90.2344C151.164 90.2344 149.93 89.6562 148.961 88.5ZM161.383 90V78.2812H171.227V90H169.352V80.0391H163.258V90H161.383ZM174.508 90V78.2812H176.383V87.4453L182.617 78.2812H184.586V90H182.711V80.9297L176.523 90H174.508ZM186.695 80.0391V78.2812H197.008V80.0391H192.789V90H190.914V80.0391H186.695ZM200.875 80.8828C200.266 81.6797 199.961 82.7422 199.961 84.0703C199.961 85.3984 200.266 86.4844 200.875 87.3281C201.5 88.1719 202.328 88.5938 203.359 88.5938C204.359 88.5938 205.148 88.1953 205.727 87.3984C206.32 86.6016 206.633 85.5625 206.664 84.2812V84.0703C206.664 82.7422 206.367 81.6797 205.773 80.8828C205.195 80.0859 204.391 79.6875 203.359 79.6875C202.328 79.6875 201.5 80.0859 200.875 80.8828ZM199.398 88.5C198.43 87.3438 197.945 85.8672 197.945 84.0703C197.945 82.2734 198.422 80.8203 199.375 79.7109C200.344 78.6016 201.586 78.0469 203.102 78.0469C204.617 78.0469 205.82 78.7656 206.711 80.2031L206.898 78.2812H208.539V90H206.898L206.688 88.0078C205.781 89.4922 204.586 90.2344 203.102 90.2344C201.602 90.2344 200.367 89.6562 199.398 88.5ZM211.82 90V78.2812H213.695V82.9688H220.023V78.2812H221.898V90H220.023V84.7266H213.695V90H211.82ZM225.18 90V78.2812H227.055V82.9688H233.383V78.2812H235.258V90H233.383V84.7266H227.055V90H225.18ZM240.461 80.5078C240.055 80.8203 239.852 81.25 239.852 81.7969C239.852 82.3438 240.055 82.8125 240.461 83.2031C240.867 83.5938 241.5 83.7891 242.359 83.7891H245.336V80.0391H242.289C241.492 80.0391 240.883 80.1953 240.461 80.5078ZM237.836 90L240.836 85.3828C239.93 85.1484 239.203 84.7188 238.656 84.0938C238.109 83.4531 237.836 82.6875 237.836 81.7969C237.836 80.7188 238.219 79.8672 238.984 79.2422C239.75 78.6016 240.773 78.2812 242.055 78.2812H247.211V90H245.336V85.5469H242.922L240.039 90H237.836ZM251.078 84.8438V74.1328H253.07V84.8438H251.078ZM250.656 88.7578C250.656 88.3203 250.797 87.9688 251.078 87.7031C251.359 87.4219 251.711 87.2812 252.133 87.2812C252.555 87.2812 252.906 87.4219 253.188 87.7031C253.469 87.9688 253.609 88.3203 253.609 88.7578C253.609 89.2109 253.469 89.5703 253.188 89.8359C252.906 90.1016 252.555 90.2344 252.133 90.2344C251.711 90.2344 251.359 90.1016 251.078 89.8359C250.797 89.5703 250.656 89.2109 250.656 88.7578Z" fill="#0C1B33"/>
<defs>
<clipPath id="clip0_1730_5049">
<rect width="16" height="21" fill="white" transform="translate(308) rotate(90)"/>
</clipPath>
</defs>
</svg>
