<svg width="324" height="138" viewBox="0 0 324 138" fill="none" xmlns="http://www.w3.org/2000/svg">
<g clip-path="url(#clip0_1728_4909)">
<path d="M324 16.7336C324 16.7336 324 5.43758 324 2.55929C324 -0.319004 321.106 -0.984252 318.212 1.67344C315.318 4.33112 302 16.7336 302 16.7336L324 16.7336Z" fill="#FCFCFC"/>
</g>
<path d="M0 32C0 23.1634 7.16344 16 16 16H324V122C324 130.837 316.837 138 308 138H16C7.16343 138 0 130.837 0 122V32Z" fill="#FCFCFC"/>
<path d="M65.0625 69V53.1328H67.1719L72.4922 62.2031L77.8359 53.1328H79.9453V69H77.9531V56.2031L73.1719 64.5469H71.7891L67.0547 56.3672V69H65.0625ZM83.2266 69V57.2812H85.1016V66.4453L91.3359 57.2812H93.3047V69H91.4297V59.9297L85.2422 69H83.2266ZM104.555 67.2422H109.945V59.0391H105.492V60.5156C105.492 62.2969 105.18 64.5391 104.555 67.2422ZM101.273 67.2422H102.656C103.297 64.6797 103.617 62.2266 103.617 59.8828V57.2812H111.82V67.2422H113.695V73.1484H111.82V69H103.148V73.1484H101.273V67.2422ZM114.633 57.2812H116.742L120.492 66.7266L123.891 57.2812H125.883L121.5 68.8828L121.453 69C120.844 70.4844 120.219 71.5469 119.578 72.1875C118.938 72.8281 118.023 73.1484 116.836 73.1484H115.688V71.25H116.766C117.938 71.25 118.844 70.4141 119.484 68.7422L114.633 57.2812ZM127.055 69L130.992 62.8828L127.242 57.2812H129.328L132.469 61.9688H133.711V57.2812H135.586V61.9688H136.852L140.203 57.2812H142.289L138.281 62.9062L142.477 69H140.273L136.664 63.7266H135.586V69H133.711V63.7266H132.656L129.258 69H127.055ZM145.523 61.7344H152.133C152.102 60.8438 151.828 60.1172 151.312 59.5547C150.812 58.9766 150.023 58.6875 148.945 58.6875C147.914 58.6875 147.094 58.9844 146.484 59.5781C145.875 60.1719 145.555 60.8906 145.523 61.7344ZM144.938 67.5234C143.922 66.3828 143.414 64.8984 143.414 63.0703C143.414 61.2422 143.906 59.7812 144.891 58.6875C145.875 57.5938 147.227 57.0469 148.945 57.0469C150.617 57.0469 151.906 57.5547 152.812 58.5703C153.719 59.5859 154.172 60.9062 154.172 62.5312V63.2578H145.43C145.461 64.6328 145.789 65.7031 146.414 66.4688C147.055 67.2188 147.93 67.5938 149.039 67.5938C150.195 67.5938 151.023 67.2656 151.523 66.6094C151.82 66.2031 151.969 65.7891 151.969 65.3672H153.961C153.961 66.0547 153.719 66.7422 153.234 67.4297C152.391 68.6328 150.992 69.2344 149.039 69.2344C147.32 69.2344 145.953 68.6641 144.938 67.5234ZM162.141 60.7969V57.2812H164.016V60.5625V60.7266C164.016 62.6484 164.867 63.6094 166.57 63.6094C167.555 63.6094 168.5 63.5156 169.406 63.3281V57.2812H171.281V69H169.406V64.8984C168.312 65.1328 167.297 65.25 166.359 65.25C165.078 65.25 164.055 64.8984 163.289 64.1953C162.523 63.4766 162.141 62.3438 162.141 60.7969ZM175.969 61.7344H182.578C182.547 60.8438 182.273 60.1172 181.758 59.5547C181.258 58.9766 180.469 58.6875 179.391 58.6875C178.359 58.6875 177.539 58.9844 176.93 59.5781C176.32 60.1719 176 60.8906 175.969 61.7344ZM175.383 67.5234C174.367 66.3828 173.859 64.8984 173.859 63.0703C173.859 61.2422 174.352 59.7812 175.336 58.6875C176.32 57.5938 177.672 57.0469 179.391 57.0469C181.062 57.0469 182.352 57.5547 183.258 58.5703C184.164 59.5859 184.617 60.9062 184.617 62.5312V63.2578H175.875C175.906 64.6328 176.234 65.7031 176.859 66.4688C177.5 67.2188 178.375 67.5938 179.484 67.5938C180.641 67.5938 181.469 67.2656 181.969 66.6094C182.266 66.2031 182.414 65.7891 182.414 65.3672H184.406C184.406 66.0547 184.164 66.7422 183.68 67.4297C182.836 68.6328 181.438 69.2344 179.484 69.2344C177.766 69.2344 176.398 68.6641 175.383 67.5234ZM187.195 69V57.2812H189.07V61.9688H190.312L194.391 57.2812H196.594L191.695 62.9297L196.781 69H194.344L189.938 63.7266H189.07V69H187.195ZM200.18 59.8828C199.57 60.6797 199.266 61.7422 199.266 63.0703C199.266 64.3984 199.57 65.4844 200.18 66.3281C200.805 67.1719 201.633 67.5938 202.664 67.5938C203.664 67.5938 204.453 67.1953 205.031 66.3984C205.625 65.6016 205.938 64.5625 205.969 63.2812V63.0703C205.969 61.7422 205.672 60.6797 205.078 59.8828C204.5 59.0859 203.695 58.6875 202.664 58.6875C201.633 58.6875 200.805 59.0859 200.18 59.8828ZM198.703 67.5C197.734 66.3438 197.25 64.8672 197.25 63.0703C197.25 61.2734 197.727 59.8203 198.68 58.7109C199.648 57.6016 200.891 57.0469 202.406 57.0469C203.922 57.0469 205.125 57.7656 206.016 59.2031L206.203 57.2812H207.844V69H206.203L205.992 67.0078C205.086 68.4922 203.891 69.2344 202.406 69.2344C200.906 69.2344 199.672 68.6562 198.703 67.5ZM211.922 67.5938C210.922 66.5 210.422 65.0156 210.422 63.1406C210.422 61.2656 210.922 59.7812 211.922 58.6875C212.938 57.5938 214.234 57.0469 215.812 57.0469C217.516 57.0469 218.789 57.6016 219.633 58.7109C220.18 59.4453 220.453 60.2812 220.453 61.2188H218.461C218.461 60.5312 218.281 59.9766 217.922 59.5547C217.453 58.9766 216.75 58.6875 215.812 58.6875C214.922 58.6875 214.156 59.0234 213.516 59.6953C212.891 60.3516 212.57 61.1875 212.555 62.2031H216.562V63.9609H212.555C212.57 64.9922 212.898 65.8594 213.539 66.5625C214.18 67.25 214.938 67.5938 215.812 67.5938C216.75 67.5938 217.461 67.2969 217.945 66.7031C218.32 66.2344 218.508 65.6719 218.508 65.0156H220.5C220.5 66.0469 220.234 66.9062 219.703 67.5938C218.859 68.6875 217.562 69.2344 215.812 69.2344C214.234 69.2344 212.938 68.6875 211.922 67.5938ZM223.078 69V57.2812H225.188L228.82 63.2578L232.453 57.2812H234.562V69H232.688V60.2812L229.43 65.6719H228.211L224.953 60.3281V69H223.078ZM239.133 63.0703C239.133 64.3984 239.461 65.4844 240.117 66.3281C240.789 67.1719 241.672 67.5938 242.766 67.5938C243.859 67.5938 244.734 67.1719 245.391 66.3281C246.062 65.4844 246.398 64.3984 246.398 63.0703C246.398 61.7578 246.07 60.7031 245.414 59.9062C244.758 59.0938 243.875 58.6875 242.766 58.6875C241.656 58.6875 240.773 59.0938 240.117 59.9062C239.461 60.7031 239.133 61.7578 239.133 63.0703ZM238.688 67.5234C237.656 66.3672 237.141 64.8828 237.141 63.0703C237.141 61.2578 237.648 59.8047 238.664 58.7109C239.695 57.6016 241.062 57.0469 242.766 57.0469C244.469 57.0469 245.828 57.6016 246.844 58.7109C247.875 59.8047 248.391 61.2578 248.391 63.0703C248.391 64.8828 247.875 66.3672 246.844 67.5234C245.812 68.6641 244.453 69.2344 242.766 69.2344C241.078 69.2344 239.719 68.6641 238.688 67.5234ZM257.062 69V57.2812H258.938V69H257.062ZM257.039 55.2188C256.789 54.9688 256.664 54.6406 256.664 54.2344C256.664 53.8281 256.789 53.5078 257.039 53.2734C257.289 53.0234 257.609 52.8984 258 52.8984C258.391 52.8984 258.711 53.0234 258.961 53.2734C259.211 53.5078 259.336 53.8281 259.336 54.2344C259.336 54.6406 259.211 54.9688 258.961 55.2188C258.711 55.4531 258.391 55.5703 258 55.5703C257.609 55.5703 257.289 55.4531 257.039 55.2188ZM31.9805 94.4141H33.9727C33.9727 95.0391 34.207 95.5625 34.6758 95.9844C35.1602 96.3906 35.8242 96.5938 36.668 96.5938C37.5273 96.5938 38.1836 96.4219 38.6367 96.0781C39.1055 95.7188 39.3398 95.2266 39.3398 94.6016C39.3398 94.1641 39.1211 93.7891 38.6836 93.4766C38.2461 93.1641 37.6992 92.9922 37.043 92.9609H35.2617V91.2031H36.668C37.4492 91.1875 38.0508 91.0234 38.4727 90.7109C38.8945 90.3984 39.1055 89.9766 39.1055 89.4453C39.1055 88.8984 38.8945 88.4688 38.4727 88.1562C38.0664 87.8438 37.4648 87.6875 36.668 87.6875C35.8555 87.6875 35.2383 87.8906 34.8164 88.2969C34.4102 88.7031 34.207 89.2266 34.207 89.8672H32.2148C32.2148 88.8047 32.5664 87.9062 33.2695 87.1719C33.9883 86.4219 35.1211 86.0469 36.668 86.0469C38.0586 86.0469 39.1445 86.3516 39.9258 86.9609C40.7227 87.5703 41.1211 88.3984 41.1211 89.4453C41.1211 90.6797 40.3711 91.5234 38.8711 91.9766C40.5273 92.4141 41.3555 93.3672 41.3555 94.8359C41.3555 95.8828 40.9414 96.7109 40.1133 97.3203C39.3008 97.9297 38.1523 98.2344 36.668 98.2344C35.0742 98.2344 33.8945 97.8594 33.1289 97.1094C32.3633 96.3594 31.9805 95.4609 31.9805 94.4141ZM46.1602 88.8828C45.5508 89.6797 45.2461 90.7422 45.2461 92.0703C45.2461 93.3984 45.5508 94.4844 46.1602 95.3281C46.7852 96.1719 47.6133 96.5938 48.6445 96.5938C49.6445 96.5938 50.4336 96.1953 51.0117 95.3984C51.6055 94.6016 51.918 93.5625 51.9492 92.2812V92.0703C51.9492 90.7422 51.6523 89.6797 51.0586 88.8828C50.4805 88.0859 49.6758 87.6875 48.6445 87.6875C47.6133 87.6875 46.7852 88.0859 46.1602 88.8828ZM44.6836 96.5C43.7148 95.3438 43.2305 93.8672 43.2305 92.0703C43.2305 90.2734 43.707 88.8203 44.6602 87.7109C45.6289 86.6016 46.8711 86.0469 48.3867 86.0469C49.9023 86.0469 51.1055 86.7656 51.9961 88.2031L52.1836 86.2812H53.8242V98H52.1836L51.9727 96.0078C51.0664 97.4922 49.8711 98.2344 48.3867 98.2344C46.8867 98.2344 45.6523 97.6562 44.6836 96.5ZM58.9805 91.3203H62.0508C63.5039 91.3203 64.2305 90.7344 64.2305 89.5625C64.2305 88.5469 63.4258 88.0391 61.8164 88.0391H58.9805V91.3203ZM58.9805 96.2422H62.0273C62.8242 96.2422 63.4258 96.0859 63.832 95.7734C64.2539 95.4609 64.4648 95.0312 64.4648 94.4844C64.4648 94 64.2617 93.6094 63.8555 93.3125C63.4492 93 62.8477 92.8438 62.0508 92.8438H58.9805V96.2422ZM57.1055 98V86.2812H62.0273C63.3086 86.2812 64.332 86.5703 65.0977 87.1484C65.8633 87.7266 66.2461 88.4922 66.2461 89.4453C66.2461 90.7109 65.5195 91.5625 64.0664 92C65.6758 92.4375 66.4805 93.3828 66.4805 94.8359C66.4805 95.7891 66.0977 96.5547 65.332 97.1328C64.5664 97.7109 63.543 98 62.2617 98H57.1055ZM67.7695 98L71.707 91.8828L67.957 86.2812H70.043L73.1836 90.9688H74.4258V86.2812H76.3008V90.9688H77.5664L80.918 86.2812H83.0039L78.9961 91.9062L83.1914 98H80.9883L77.3789 92.7266H76.3008V98H74.4258V92.7266H73.3711L69.9727 98H67.7695ZM87.4102 96.2422H92.8008V88.0391H88.3477V89.5156C88.3477 91.2969 88.0352 93.5391 87.4102 96.2422ZM84.1289 96.2422H85.5117C86.1523 93.6797 86.4727 91.2266 86.4727 88.8828V86.2812H94.6758V96.2422H96.5508V102.148H94.6758V98H86.0039V102.148H84.1289V96.2422ZM98.6602 98V86.2812H100.535V95.4453L106.77 86.2812H108.738V98H106.863V88.9297L100.676 98H98.6602ZM119.988 92.0703C119.988 93.3672 120.262 94.4453 120.809 95.3047C121.371 96.1641 122.199 96.5938 123.293 96.5938C124.277 96.5938 125.09 96.1719 125.73 95.3281C126.371 94.4688 126.691 93.3828 126.691 92.0703C126.691 90.7422 126.379 89.6797 125.754 88.8828C125.145 88.0859 124.324 87.6875 123.293 87.6875C122.215 87.6875 121.395 88.125 120.832 89C120.27 89.8594 119.988 90.8828 119.988 92.0703ZM118.113 102.148V86.2812H119.754L119.918 88.1562C120.762 86.75 121.973 86.0469 123.551 86.0469C125.066 86.0469 126.301 86.6016 127.254 87.7109C128.223 88.8203 128.707 90.2734 128.707 92.0703C128.707 93.8516 128.207 95.3281 127.207 96.5C126.223 97.6562 125.004 98.2344 123.551 98.2344C122.004 98.2344 120.816 97.5703 119.988 96.2422V102.148H118.113ZM133.512 88.8828C132.902 89.6797 132.598 90.7422 132.598 92.0703C132.598 93.3984 132.902 94.4844 133.512 95.3281C134.137 96.1719 134.965 96.5938 135.996 96.5938C136.996 96.5938 137.785 96.1953 138.363 95.3984C138.957 94.6016 139.27 93.5625 139.301 92.2812V92.0703C139.301 90.7422 139.004 89.6797 138.41 88.8828C137.832 88.0859 137.027 87.6875 135.996 87.6875C134.965 87.6875 134.137 88.0859 133.512 88.8828ZM132.035 96.5C131.066 95.3438 130.582 93.8672 130.582 92.0703C130.582 90.2734 131.059 88.8203 132.012 87.7109C132.98 86.6016 134.223 86.0469 135.738 86.0469C137.254 86.0469 138.457 86.7656 139.348 88.2031L139.535 86.2812H141.176V98H139.535L139.324 96.0078C138.418 97.4922 137.223 98.2344 135.738 98.2344C134.238 98.2344 133.004 97.6562 132.035 96.5ZM146.332 96.2422H151.723V88.0391H147.27V89.5156C147.27 91.2969 146.957 93.5391 146.332 96.2422ZM143.051 96.2422H144.434C145.074 93.6797 145.395 91.2266 145.395 88.8828V86.2812H153.598V96.2422H155.473V102.148H153.598V98H144.926V102.148H143.051V96.2422ZM157.582 98V86.2812H159.457V98H157.582ZM157.559 84.2188C157.309 83.9688 157.184 83.6406 157.184 83.2344C157.184 82.8281 157.309 82.5078 157.559 82.2734C157.809 82.0234 158.129 81.8984 158.52 81.8984C158.91 81.8984 159.23 82.0234 159.48 82.2734C159.73 82.5078 159.855 82.8281 159.855 83.2344C159.855 83.6406 159.73 83.9688 159.48 84.2188C159.23 84.4531 158.91 84.5703 158.52 84.5703C158.129 84.5703 157.809 84.4531 157.559 84.2188ZM170.707 91.3203H173.777C175.23 91.3203 175.957 90.7344 175.957 89.5625C175.957 88.5469 175.152 88.0391 173.543 88.0391H170.707V91.3203ZM170.707 96.2422H173.754C174.551 96.2422 175.152 96.0859 175.559 95.7734C175.98 95.4609 176.191 95.0312 176.191 94.4844C176.191 94 175.988 93.6094 175.582 93.3125C175.176 93 174.574 92.8438 173.777 92.8438H170.707V96.2422ZM168.832 98V86.2812H173.754C175.035 86.2812 176.059 86.5703 176.824 87.1484C177.59 87.7266 177.973 88.4922 177.973 89.4453C177.973 90.7109 177.246 91.5625 175.793 92C177.402 92.4375 178.207 93.3828 178.207 94.8359C178.207 95.7891 177.824 96.5547 177.059 97.1328C176.293 97.7109 175.27 98 173.988 98H168.832ZM183.012 88.8828C182.402 89.6797 182.098 90.7422 182.098 92.0703C182.098 93.3984 182.402 94.4844 183.012 95.3281C183.637 96.1719 184.465 96.5938 185.496 96.5938C186.496 96.5938 187.285 96.1953 187.863 95.3984C188.457 94.6016 188.77 93.5625 188.801 92.2812V92.0703C188.801 90.7422 188.504 89.6797 187.91 88.8828C187.332 88.0859 186.527 87.6875 185.496 87.6875C184.465 87.6875 183.637 88.0859 183.012 88.8828ZM181.535 96.5C180.566 95.3438 180.082 93.8672 180.082 92.0703C180.082 90.2734 180.559 88.8203 181.512 87.7109C182.48 86.6016 183.723 86.0469 185.238 86.0469C186.754 86.0469 187.957 86.7656 188.848 88.2031L189.035 86.2812H190.676V98H189.035L188.824 96.0078C187.918 97.4922 186.723 98.2344 185.238 98.2344C183.738 98.2344 182.504 97.6562 181.535 96.5ZM193.254 92.0703C193.254 90.1953 193.762 88.7266 194.777 87.6641C195.793 86.5859 197.121 86.0469 198.762 86.0469C200.387 86.0469 201.621 86.6016 202.465 87.7109C203.012 88.4453 203.285 89.2812 203.285 90.2188H201.293C201.293 89.5312 201.113 88.9766 200.754 88.5547C200.285 87.9766 199.582 87.6875 198.645 87.6875C197.676 87.6875 196.871 88.0781 196.23 88.8594C195.59 89.625 195.27 90.6953 195.27 92.0703C195.27 93.4609 195.59 94.5625 196.23 95.375C196.887 96.1875 197.691 96.5938 198.645 96.5938C199.582 96.5938 200.293 96.2969 200.777 95.7031C201.152 95.2344 201.34 94.6719 201.34 94.0156H203.332C203.332 95.0469 203.066 95.9062 202.535 96.5938C201.691 97.6875 200.434 98.2344 198.762 98.2344C197.137 98.2344 195.809 97.6797 194.777 96.5703C193.762 95.4609 193.254 93.9609 193.254 92.0703ZM213.645 92.4922C213.645 93.6797 213.957 94.6641 214.582 95.4453C215.207 96.2109 216.035 96.5938 217.066 96.5938C218.113 96.5938 218.957 96.2109 219.598 95.4453C220.254 94.6641 220.582 93.6797 220.582 92.4922C220.582 91.3672 220.27 90.4453 219.645 89.7266C219.02 88.9922 218.16 88.625 217.066 88.625C215.988 88.625 215.145 88.9844 214.535 89.7031C213.941 90.4219 213.645 91.3516 213.645 92.4922ZM211.77 92.4922V89.9609C211.77 88.6797 211.934 87.5859 212.262 86.6797C212.59 85.7578 213.074 85.0156 213.715 84.4531C214.355 83.8906 215.066 83.4531 215.848 83.1406C216.629 82.8281 217.566 82.5703 218.66 82.3672L221.426 81.875L221.66 83.7031L219.082 84.1953C217.176 84.5703 215.816 85.0938 215.004 85.7656C214.191 86.4375 213.738 87.5547 213.645 89.1172C214.473 87.6953 215.777 86.9844 217.559 86.9844C219.012 86.9844 220.215 87.5078 221.168 88.5547C222.121 89.5859 222.598 90.8984 222.598 92.4922C222.598 94.1016 222.098 95.4609 221.098 96.5703C220.113 97.6797 218.77 98.2344 217.066 98.2344C215.441 98.2344 214.152 97.6797 213.199 96.5703C212.246 95.4609 211.77 94.1016 211.77 92.4922ZM227.402 88.8828C226.793 89.6797 226.488 90.7422 226.488 92.0703C226.488 93.3984 226.793 94.4844 227.402 95.3281C228.027 96.1719 228.855 96.5938 229.887 96.5938C230.887 96.5938 231.676 96.1953 232.254 95.3984C232.848 94.6016 233.16 93.5625 233.191 92.2812V92.0703C233.191 90.7422 232.895 89.6797 232.301 88.8828C231.723 88.0859 230.918 87.6875 229.887 87.6875C228.855 87.6875 228.027 88.0859 227.402 88.8828ZM225.926 96.5C224.957 95.3438 224.473 93.8672 224.473 92.0703C224.473 90.2734 224.949 88.8203 225.902 87.7109C226.871 86.6016 228.113 86.0469 229.629 86.0469C231.145 86.0469 232.348 86.7656 233.238 88.2031L233.426 86.2812H235.066V98H233.426L233.215 96.0078C232.309 97.4922 231.113 98.2344 229.629 98.2344C228.129 98.2344 226.895 97.6562 225.926 96.5ZM237.645 89.7969V86.2812H239.52V89.5625V89.7266C239.52 91.6484 240.371 92.6094 242.074 92.6094C243.059 92.6094 244.004 92.5156 244.91 92.3281V86.2812H246.785V98H244.91V93.8984C243.816 94.1328 242.801 94.25 241.863 94.25C240.582 94.25 239.559 93.8984 238.793 93.1953C238.027 92.4766 237.645 91.3438 237.645 89.7969ZM250.066 98V86.2812H251.941V95.4453L258.176 86.2812H260.145V98H258.27V88.9297L252.082 98H250.066ZM262.254 88.0391V86.2812H272.566V88.0391H268.348V98H266.473V88.0391H262.254ZM274.676 98V86.2812H276.551V95.4453L282.785 86.2812H284.754V98H282.879V88.9297L276.691 98H274.676ZM288.621 92.8438V82.1328H290.613V92.8438H288.621ZM288.199 96.7578C288.199 96.3203 288.34 95.9688 288.621 95.7031C288.902 95.4219 289.254 95.2812 289.676 95.2812C290.098 95.2812 290.449 95.4219 290.73 95.7031C291.012 95.9688 291.152 96.3203 291.152 96.7578C291.152 97.2109 291.012 97.5703 290.73 97.8359C290.449 98.1016 290.098 98.2344 289.676 98.2344C289.254 98.2344 288.902 98.1016 288.621 97.8359C288.34 97.5703 288.199 97.2109 288.199 96.7578Z" fill="#0C1B33"/>
<defs>
<clipPath id="clip0_1728_4909">
<rect width="16" height="21" fill="white" transform="translate(324) rotate(90)"/>
</clipPath>
</defs>
</svg>
