<svg width="258" height="106" viewBox="0 0 258 106" fill="none" xmlns="http://www.w3.org/2000/svg">
<g clip-path="url(#clip0_1159_3601)">
<path d="M16.7336 106C16.7336 106 5.43758 106 2.55929 106C-0.319004 106 -0.984252 103.106 1.67344 100.212C4.33112 97.3181 16.7336 84 16.7336 84V106Z" fill="#FCFCFC"/>
</g>
<path d="M15 16C15 7.16344 22.1634 0 31 0H242C250.837 0 258 7.16344 258 16V90C258 98.8366 250.837 106 242 106H15V16Z" fill="#FCFCFC"/>
<path d="M40.6406 45V29.1328H42.6328V43.125H50.7188V29.1328H52.7109V43.125H54.5859V49.1484H52.5938V45H40.6406ZM58.1016 37.7344H64.7109C64.6797 36.8438 64.4062 36.1172 63.8906 35.5547C63.3906 34.9766 62.6016 34.6875 61.5234 34.6875C60.4922 34.6875 59.6719 34.9844 59.0625 35.5781C58.4531 36.1719 58.1328 36.8906 58.1016 37.7344ZM57.5156 43.5234C56.5 42.3828 55.9922 40.8984 55.9922 39.0703C55.9922 37.2422 56.4844 35.7812 57.4688 34.6875C58.4531 33.5938 59.8047 33.0469 61.5234 33.0469C63.1953 33.0469 64.4844 33.5547 65.3906 34.5703C66.2969 35.5859 66.75 36.9062 66.75 38.5312V39.2578H58.0078C58.0391 40.6328 58.3672 41.7031 58.9922 42.4688C59.6328 43.2188 60.5078 43.5938 61.6172 43.5938C62.7734 43.5938 63.6016 43.2656 64.1016 42.6094C64.3984 42.2031 64.5469 41.7891 64.5469 41.3672H66.5391C66.5391 42.0547 66.2969 42.7422 65.8125 43.4297C64.9688 44.6328 63.5703 45.2344 61.6172 45.2344C59.8984 45.2344 58.5312 44.6641 57.5156 43.5234ZM75.4219 45V33.2812H77.5312L81.1641 39.2578L84.7969 33.2812H86.9062V45H85.0312V36.2812L81.7734 41.6719H80.5547L77.2969 36.3281V45H75.4219ZM91.5938 37.7344H98.2031C98.1719 36.8438 97.8984 36.1172 97.3828 35.5547C96.8828 34.9766 96.0938 34.6875 95.0156 34.6875C93.9844 34.6875 93.1641 34.9844 92.5547 35.5781C91.9453 36.1719 91.625 36.8906 91.5938 37.7344ZM91.0078 43.5234C89.9922 42.3828 89.4844 40.8984 89.4844 39.0703C89.4844 37.2422 89.9766 35.7812 90.9609 34.6875C91.9453 33.5938 93.2969 33.0469 95.0156 33.0469C96.6875 33.0469 97.9766 33.5547 98.8828 34.5703C99.7891 35.5859 100.242 36.9062 100.242 38.5312V39.2578H91.5C91.5312 40.6328 91.8594 41.7031 92.4844 42.4688C93.125 43.2188 94 43.5938 95.1094 43.5938C96.2656 43.5938 97.0938 43.2656 97.5938 42.6094C97.8906 42.2031 98.0391 41.7891 98.0391 41.3672H100.031C100.031 42.0547 99.7891 42.7422 99.3047 43.4297C98.4609 44.6328 97.0625 45.2344 95.1094 45.2344C93.3906 45.2344 92.0234 44.6641 91.0078 43.5234ZM102.82 45V33.2812H104.695V37.9688H111.023V33.2812H112.898V45H111.023V39.7266H104.695V45H102.82ZM116.18 45V33.2812H118.055V45H116.18ZM116.156 31.2188C115.906 30.9688 115.781 30.6406 115.781 30.2344C115.781 29.8281 115.906 29.5078 116.156 29.2734C116.406 29.0234 116.727 28.8984 117.117 28.8984C117.508 28.8984 117.828 29.0234 118.078 29.2734C118.328 29.5078 118.453 29.8281 118.453 30.2344C118.453 30.6406 118.328 30.9688 118.078 31.2188C117.828 31.4531 117.508 31.5703 117.117 31.5703C116.727 31.5703 116.406 31.4531 116.156 31.2188ZM126.727 41.4141H128.719C128.719 42.0391 128.953 42.5625 129.422 42.9844C129.906 43.3906 130.57 43.5938 131.414 43.5938C132.273 43.5938 132.93 43.4219 133.383 43.0781C133.852 42.7188 134.086 42.2266 134.086 41.6016C134.086 41.1641 133.867 40.7891 133.43 40.4766C132.992 40.1641 132.445 39.9922 131.789 39.9609H130.008V38.2031H131.414C132.195 38.1875 132.797 38.0234 133.219 37.7109C133.641 37.3984 133.852 36.9766 133.852 36.4453C133.852 35.8984 133.641 35.4688 133.219 35.1562C132.812 34.8438 132.211 34.6875 131.414 34.6875C130.602 34.6875 129.984 34.8906 129.562 35.2969C129.156 35.7031 128.953 36.2266 128.953 36.8672H126.961C126.961 35.8047 127.312 34.9062 128.016 34.1719C128.734 33.4219 129.867 33.0469 131.414 33.0469C132.805 33.0469 133.891 33.3516 134.672 33.9609C135.469 34.5703 135.867 35.3984 135.867 36.4453C135.867 37.6797 135.117 38.5234 133.617 38.9766C135.273 39.4141 136.102 40.3672 136.102 41.8359C136.102 42.8828 135.688 43.7109 134.859 44.3203C134.047 44.9297 132.898 45.2344 131.414 45.2344C129.82 45.2344 128.641 44.8594 127.875 44.1094C127.109 43.3594 126.727 42.4609 126.727 41.4141ZM140.906 35.8828C140.297 36.6797 139.992 37.7422 139.992 39.0703C139.992 40.3984 140.297 41.4844 140.906 42.3281C141.531 43.1719 142.359 43.5938 143.391 43.5938C144.391 43.5938 145.18 43.1953 145.758 42.3984C146.352 41.6016 146.664 40.5625 146.695 39.2812V39.0703C146.695 37.7422 146.398 36.6797 145.805 35.8828C145.227 35.0859 144.422 34.6875 143.391 34.6875C142.359 34.6875 141.531 35.0859 140.906 35.8828ZM139.43 43.5C138.461 42.3438 137.977 40.8672 137.977 39.0703C137.977 37.2734 138.453 35.8203 139.406 34.7109C140.375 33.6016 141.617 33.0469 143.133 33.0469C144.648 33.0469 145.852 33.7656 146.742 35.2031L146.93 33.2812H148.57V45H146.93L146.719 43.0078C145.812 44.4922 144.617 45.2344 143.133 45.2344C141.633 45.2344 140.398 44.6562 139.43 43.5ZM156.773 35.0391V33.2812H167.086V35.0391H162.867V45H160.992V35.0391H156.773ZM170.133 37.7344H176.742C176.711 36.8438 176.438 36.1172 175.922 35.5547C175.422 34.9766 174.633 34.6875 173.555 34.6875C172.523 34.6875 171.703 34.9844 171.094 35.5781C170.484 36.1719 170.164 36.8906 170.133 37.7344ZM169.547 43.5234C168.531 42.3828 168.023 40.8984 168.023 39.0703C168.023 37.2422 168.516 35.7812 169.5 34.6875C170.484 33.5938 171.836 33.0469 173.555 33.0469C175.227 33.0469 176.516 33.5547 177.422 34.5703C178.328 35.5859 178.781 36.9062 178.781 38.5312V39.2578H170.039C170.07 40.6328 170.398 41.7031 171.023 42.4688C171.664 43.2188 172.539 43.5938 173.648 43.5938C174.805 43.5938 175.633 43.2656 176.133 42.6094C176.43 42.2031 176.578 41.7891 176.578 41.3672H178.57C178.57 42.0547 178.328 42.7422 177.844 43.4297C177 44.6328 175.602 45.2344 173.648 45.2344C171.93 45.2344 170.562 44.6641 169.547 43.5234ZM180.094 47.0391L183.281 41.5078L184.805 42.375L181.617 47.9062L180.094 47.0391ZM194.344 45V33.2812H196.219V43.2422H200.906V33.2812H202.781V43.2422H207.469V33.2812H209.344V43.2422H211.219V49.1484H209.344V45H194.344ZM214.617 39.0703C214.617 40.3984 214.945 41.4844 215.602 42.3281C216.273 43.1719 217.156 43.5938 218.25 43.5938C219.344 43.5938 220.219 43.1719 220.875 42.3281C221.547 41.4844 221.883 40.3984 221.883 39.0703C221.883 37.7578 221.555 36.7031 220.898 35.9062C220.242 35.0938 219.359 34.6875 218.25 34.6875C217.141 34.6875 216.258 35.0938 215.602 35.9062C214.945 36.7031 214.617 37.7578 214.617 39.0703ZM214.172 43.5234C213.141 42.3672 212.625 40.8828 212.625 39.0703C212.625 37.2578 213.133 35.8047 214.148 34.7109C215.18 33.6016 216.547 33.0469 218.25 33.0469C219.953 33.0469 221.312 33.6016 222.328 34.7109C223.359 35.8047 223.875 37.2578 223.875 39.0703C223.875 40.8828 223.359 42.3672 222.328 43.5234C221.297 44.6641 219.938 45.2344 218.25 45.2344C216.562 45.2344 215.203 44.6641 214.172 43.5234ZM42.5625 64.5078C42.1562 64.8203 41.9531 65.25 41.9531 65.7969C41.9531 66.3438 42.1562 66.8125 42.5625 67.2031C42.9688 67.5938 43.6016 67.7891 44.4609 67.7891H47.4375V64.0391H44.3906C43.5938 64.0391 42.9844 64.1953 42.5625 64.5078ZM39.9375 74L42.9375 69.3828C42.0312 69.1484 41.3047 68.7188 40.7578 68.0938C40.2109 67.4531 39.9375 66.6875 39.9375 65.7969C39.9375 64.7188 40.3203 63.8672 41.0859 63.2422C41.8516 62.6016 42.875 62.2812 44.1562 62.2812H49.3125V74H47.4375V69.5469H45.0234L42.1406 74H39.9375ZM57.5156 64.0391V62.2812H67.8281V64.0391H63.6094V74H61.7344V64.0391H57.5156ZM71.6953 64.8828C71.0859 65.6797 70.7812 66.7422 70.7812 68.0703C70.7812 69.3984 71.0859 70.4844 71.6953 71.3281C72.3203 72.1719 73.1484 72.5938 74.1797 72.5938C75.1797 72.5938 75.9688 72.1953 76.5469 71.3984C77.1406 70.6016 77.4531 69.5625 77.4844 68.2812V68.0703C77.4844 66.7422 77.1875 65.6797 76.5938 64.8828C76.0156 64.0859 75.2109 63.6875 74.1797 63.6875C73.1484 63.6875 72.3203 64.0859 71.6953 64.8828ZM70.2188 72.5C69.25 71.3438 68.7656 69.8672 68.7656 68.0703C68.7656 66.2734 69.2422 64.8203 70.1953 63.7109C71.1641 62.6016 72.4062 62.0469 73.9219 62.0469C75.4375 62.0469 76.6406 62.7656 77.5312 64.2031L77.7188 62.2812H79.3594V74H77.7188L77.5078 72.0078C76.6016 73.4922 75.4062 74.2344 73.9219 74.2344C72.4219 74.2344 71.1875 73.6562 70.2188 72.5ZM82.6406 74V62.2812H84.5156V66.9688H85.7578L89.8359 62.2812H92.0391L87.1406 67.9297L92.2266 74H89.7891L85.3828 68.7266H84.5156V74H82.6406ZM94.1016 74V62.2812H95.9766V71.4453L102.211 62.2812H104.18V74H102.305V64.9297L96.1172 74H94.1016ZM108.914 58.1328H110.695C110.727 58.3828 110.883 58.6328 111.164 58.8828C111.461 59.1328 111.852 59.2578 112.336 59.2578H112.805C113.289 59.2578 113.672 59.1328 113.953 58.8828C114.25 58.6328 114.414 58.3828 114.445 58.1328H116.227C116.086 58.8672 115.711 59.4766 115.102 59.9609C114.508 60.4453 113.766 60.6875 112.875 60.6875H112.266C111.375 60.6875 110.625 60.4453 110.016 59.9609C109.422 59.4766 109.055 58.8672 108.914 58.1328ZM107.461 74V62.2812H109.336V71.4453L115.57 62.2812H117.539V74H115.664V64.9297L109.477 74H107.461ZM126.914 74V62.2812H128.789V66.9688H130.031L134.109 62.2812H136.312L131.414 67.9297L136.5 74H134.062L129.656 68.7266H128.789V74H126.914ZM140.25 68.0703C140.25 69.3672 140.523 70.4453 141.07 71.3047C141.633 72.1641 142.461 72.5938 143.555 72.5938C144.539 72.5938 145.352 72.1719 145.992 71.3281C146.633 70.4688 146.953 69.3828 146.953 68.0703C146.953 66.7422 146.641 65.6797 146.016 64.8828C145.406 64.0859 144.586 63.6875 143.555 63.6875C142.477 63.6875 141.656 64.125 141.094 65C140.531 65.8594 140.25 66.8828 140.25 68.0703ZM138.375 78.1484V62.2812H140.016L140.18 64.1562C141.023 62.75 142.234 62.0469 143.812 62.0469C145.328 62.0469 146.562 62.6016 147.516 63.7109C148.484 64.8203 148.969 66.2734 148.969 68.0703C148.969 69.8516 148.469 71.3281 147.469 72.5C146.484 73.6562 145.266 74.2344 143.812 74.2344C142.266 74.2344 141.078 73.5703 140.25 72.2422V78.1484H138.375ZM153.773 64.8828C153.164 65.6797 152.859 66.7422 152.859 68.0703C152.859 69.3984 153.164 70.4844 153.773 71.3281C154.398 72.1719 155.227 72.5938 156.258 72.5938C157.258 72.5938 158.047 72.1953 158.625 71.3984C159.219 70.6016 159.531 69.5625 159.562 68.2812V68.0703C159.562 66.7422 159.266 65.6797 158.672 64.8828C158.094 64.0859 157.289 63.6875 156.258 63.6875C155.227 63.6875 154.398 64.0859 153.773 64.8828ZM152.297 72.5C151.328 71.3438 150.844 69.8672 150.844 68.0703C150.844 66.2734 151.32 64.8203 152.273 63.7109C153.242 62.6016 154.484 62.0469 156 62.0469C157.516 62.0469 158.719 62.7656 159.609 64.2031L159.797 62.2812H161.438V74H159.797L159.586 72.0078C158.68 73.4922 157.484 74.2344 156 74.2344C154.5 74.2344 153.266 73.6562 152.297 72.5ZM164.016 68.0703C164.016 66.1953 164.523 64.7266 165.539 63.6641C166.555 62.5859 167.883 62.0469 169.523 62.0469C171.148 62.0469 172.383 62.6016 173.227 63.7109C173.773 64.4453 174.047 65.2812 174.047 66.2188H172.055C172.055 65.5312 171.875 64.9766 171.516 64.5547C171.047 63.9766 170.344 63.6875 169.406 63.6875C168.438 63.6875 167.633 64.0781 166.992 64.8594C166.352 65.625 166.031 66.6953 166.031 68.0703C166.031 69.4609 166.352 70.5625 166.992 71.375C167.648 72.1875 168.453 72.5938 169.406 72.5938C170.344 72.5938 171.055 72.2969 171.539 71.7031C171.914 71.2344 172.102 70.6719 172.102 70.0156H174.094C174.094 71.0469 173.828 71.9062 173.297 72.5938C172.453 73.6875 171.195 74.2344 169.523 74.2344C167.898 74.2344 166.57 73.6797 165.539 72.5703C164.523 71.4609 164.016 69.9609 164.016 68.0703ZM176.672 74V62.2812H178.547V71.4453L184.781 62.2812H186.75V74H184.875V64.9297L178.688 74H176.672ZM191.906 67.3203H194.977C196.43 67.3203 197.156 66.7344 197.156 65.5625C197.156 64.5469 196.352 64.0391 194.742 64.0391H191.906V67.3203ZM191.906 72.2422H194.953C195.75 72.2422 196.352 72.0859 196.758 71.7734C197.18 71.4609 197.391 71.0312 197.391 70.4844C197.391 70 197.188 69.6094 196.781 69.3125C196.375 69 195.773 68.8438 194.977 68.8438H191.906V72.2422ZM190.031 74V62.2812H194.953C196.234 62.2812 197.258 62.5703 198.023 63.1484C198.789 63.7266 199.172 64.4922 199.172 65.4453C199.172 66.7109 198.445 67.5625 196.992 68C198.602 68.4375 199.406 69.3828 199.406 70.8359C199.406 71.7891 199.023 72.5547 198.258 73.1328C197.492 73.7109 196.469 74 195.188 74H190.031ZM201.984 74V62.2812H203.859V71.4453L210.094 62.2812H212.062V74H210.188V64.9297L204 74H201.984ZM216.797 58.1328H218.578C218.609 58.3828 218.766 58.6328 219.047 58.8828C219.344 59.1328 219.734 59.2578 220.219 59.2578H220.688C221.172 59.2578 221.555 59.1328 221.836 58.8828C222.133 58.6328 222.297 58.3828 222.328 58.1328H224.109C223.969 58.8672 223.594 59.4766 222.984 59.9609C222.391 60.4453 221.648 60.6875 220.758 60.6875H220.148C219.258 60.6875 218.508 60.4453 217.898 59.9609C217.305 59.4766 216.938 58.8672 216.797 58.1328ZM215.344 74V62.2812H217.219V71.4453L223.453 62.2812H225.422V74H223.547V64.9297L217.359 74H215.344ZM229.289 68.8438V58.1328H231.281V68.8438H229.289ZM228.867 72.7578C228.867 72.3203 229.008 71.9688 229.289 71.7031C229.57 71.4219 229.922 71.2812 230.344 71.2812C230.766 71.2812 231.117 71.4219 231.398 71.7031C231.68 71.9688 231.82 72.3203 231.82 72.7578C231.82 73.2109 231.68 73.5703 231.398 73.8359C231.117 74.1016 230.766 74.2344 230.344 74.2344C229.922 74.2344 229.57 74.1016 229.289 73.8359C229.008 73.5703 228.867 73.2109 228.867 72.7578Z" fill="#0C1B33"/>
<defs>
<clipPath id="clip0_1159_3601">
<rect width="16" height="21" fill="white" transform="matrix(1 0 0 -1 0 106)"/>
</clipPath>
</defs>
</svg>
