<svg width="324" height="122" viewBox="0 0 324 122" fill="none" xmlns="http://www.w3.org/2000/svg">
<g clip-path="url(#clip0_1785_4891)">
<path d="M7.3145e-07 16.7336C7.3145e-07 16.7336 2.37684e-07 5.43758 1.1187e-07 2.55929C-1.39441e-08 -0.319004 2.89396 -0.984252 5.78791 1.67344C8.68187 4.33112 22 16.7336 22 16.7336L7.3145e-07 16.7336Z" fill="#FCFCFC"/>
</g>
<path d="M0 16H308C316.837 16 324 23.1634 324 32V106C324 114.837 316.837 122 308 122H16C7.16343 122 0 114.837 0 106V16Z" fill="#FCFCFC"/>
<path d="M54.2812 59.125H57.1641C58.6172 59.0938 59.6875 58.8516 60.375 58.3984C61.0625 57.9453 61.4062 57.2266 61.4062 56.2422C61.4062 55.3047 61.0547 54.625 60.3516 54.2031C59.6641 53.7812 58.5312 53.5703 56.9531 53.5703H54.2812V59.125ZM52.2891 61V45.1328H61.8984V47.0078H54.2812V51.6953H56.9766C61.3516 51.6953 63.5391 53.2109 63.5391 56.2422C63.5391 57.8359 62.9688 59.0312 61.8281 59.8281C60.7031 60.6094 59.0859 61 56.9766 61H52.2891ZM64.9453 49.2812H67.0547L70.8047 58.7266L74.2031 49.2812H76.1953L71.8125 60.8828L71.7656 61C71.1562 62.4844 70.5312 63.5469 69.8906 64.1875C69.25 64.8281 68.3359 65.1484 67.1484 65.1484H66V63.25H67.0781C68.25 63.25 69.1562 62.4141 69.7969 60.7422L64.9453 49.2812ZM79.2422 59.2422H84.6328V51.0391H80.1797V52.5156C80.1797 54.2969 79.8672 56.5391 79.2422 59.2422ZM75.9609 59.2422H77.3438C77.9844 56.6797 78.3047 54.2266 78.3047 51.8828V49.2812H86.5078V59.2422H88.3828V65.1484H86.5078V61H77.8359V65.1484H75.9609V59.2422ZM92.3672 59.2422H95.4141C96.1953 59.2422 96.7969 59.0547 97.2188 58.6797C97.6406 58.3047 97.8516 57.8281 97.8516 57.25C97.8516 56.7344 97.6484 56.3125 97.2422 55.9844C96.8516 55.6562 96.2188 55.4922 95.3438 55.4922H92.3672V59.2422ZM90.4922 61V49.2812H92.3672V53.7344H95.3672C96.6953 53.7344 97.7734 54.0469 98.6016 54.6719C99.4453 55.2812 99.8672 56.1406 99.8672 57.25C99.8672 58.3438 99.4766 59.2422 98.6953 59.9453C97.9297 60.6484 96.9141 61 95.6484 61H90.4922ZM110.414 54.3203H113.484C114.938 54.3203 115.664 53.7344 115.664 52.5625C115.664 51.5469 114.859 51.0391 113.25 51.0391H110.414V54.3203ZM110.414 59.2422H113.461C114.258 59.2422 114.859 59.0859 115.266 58.7734C115.688 58.4609 115.898 58.0312 115.898 57.4844C115.898 57 115.695 56.6094 115.289 56.3125C114.883 56 114.281 55.8438 113.484 55.8438H110.414V59.2422ZM108.539 61V49.2812H113.461C114.742 49.2812 115.766 49.5703 116.531 50.1484C117.297 50.7266 117.68 51.4922 117.68 52.4453C117.68 53.7109 116.953 54.5625 115.5 55C117.109 55.4375 117.914 56.3828 117.914 57.8359C117.914 58.7891 117.531 59.5547 116.766 60.1328C116 60.7109 114.977 61 113.695 61H108.539ZM120.492 61V49.2812H122.367V61H120.492ZM120.469 47.2188C120.219 46.9688 120.094 46.6406 120.094 46.2344C120.094 45.8281 120.219 45.5078 120.469 45.2734C120.719 45.0234 121.039 44.8984 121.43 44.8984C121.82 44.8984 122.141 45.0234 122.391 45.2734C122.641 45.5078 122.766 45.8281 122.766 46.2344C122.766 46.6406 122.641 46.9688 122.391 47.2188C122.141 47.4531 121.82 47.5703 121.43 47.5703C121.039 47.5703 120.719 47.4531 120.469 47.2188ZM127.523 59.2422H132.914V51.0391H128.461V52.5156C128.461 54.2969 128.148 56.5391 127.523 59.2422ZM124.242 59.2422H125.625C126.266 56.6797 126.586 54.2266 126.586 51.8828V49.2812H134.789V59.2422H136.664V65.1484H134.789V61H126.117V65.1484H124.242V59.2422ZM138.773 61V49.2812H148.617V61H146.742V51.0391H140.648V61H138.773ZM153.188 55.0703C153.188 56.3984 153.516 57.4844 154.172 58.3281C154.844 59.1719 155.727 59.5938 156.82 59.5938C157.914 59.5938 158.789 59.1719 159.445 58.3281C160.117 57.4844 160.453 56.3984 160.453 55.0703C160.453 53.7578 160.125 52.7031 159.469 51.9062C158.812 51.0938 157.93 50.6875 156.82 50.6875C155.711 50.6875 154.828 51.0938 154.172 51.9062C153.516 52.7031 153.188 53.7578 153.188 55.0703ZM152.742 59.5234C151.711 58.3672 151.195 56.8828 151.195 55.0703C151.195 53.2578 151.703 51.8047 152.719 50.7109C153.75 49.6016 155.117 49.0469 156.82 49.0469C158.523 49.0469 159.883 49.6016 160.898 50.7109C161.93 51.8047 162.445 53.2578 162.445 55.0703C162.445 56.8828 161.93 58.3672 160.898 59.5234C159.867 60.6641 158.508 61.2344 156.82 61.2344C155.133 61.2344 153.773 60.6641 152.742 59.5234ZM166.898 54.3203H169.969C171.422 54.3203 172.148 53.7344 172.148 52.5625C172.148 51.5469 171.344 51.0391 169.734 51.0391H166.898V54.3203ZM166.898 59.2422H169.945C170.742 59.2422 171.344 59.0859 171.75 58.7734C172.172 58.4609 172.383 58.0312 172.383 57.4844C172.383 57 172.18 56.6094 171.773 56.3125C171.367 56 170.766 55.8438 169.969 55.8438H166.898V59.2422ZM165.023 61V49.2812H169.945C171.227 49.2812 172.25 49.5703 173.016 50.1484C173.781 50.7266 174.164 51.4922 174.164 52.4453C174.164 53.7109 173.438 54.5625 171.984 55C173.594 55.4375 174.398 56.3828 174.398 57.8359C174.398 58.7891 174.016 59.5547 173.25 60.1328C172.484 60.7109 171.461 61 170.18 61H165.023ZM176.977 61V49.2812H178.852V61H176.977ZM176.953 47.2188C176.703 46.9688 176.578 46.6406 176.578 46.2344C176.578 45.8281 176.703 45.5078 176.953 45.2734C177.203 45.0234 177.523 44.8984 177.914 44.8984C178.305 44.8984 178.625 45.0234 178.875 45.2734C179.125 45.5078 179.25 45.8281 179.25 46.2344C179.25 46.6406 179.125 46.9688 178.875 47.2188C178.625 47.4531 178.305 47.5703 177.914 47.5703C177.523 47.5703 177.203 47.4531 176.953 47.2188ZM184.008 59.2422H189.398V51.0391H184.945V52.5156C184.945 54.2969 184.633 56.5391 184.008 59.2422ZM180.727 59.2422H182.109C182.75 56.6797 183.07 54.2266 183.07 51.8828V49.2812H191.273V59.2422H193.148V65.1484H191.273V61H182.602V65.1484H180.727V59.2422ZM197.484 51.8828C196.875 52.6797 196.57 53.7422 196.57 55.0703C196.57 56.3984 196.875 57.4844 197.484 58.3281C198.109 59.1719 198.938 59.5938 199.969 59.5938C200.969 59.5938 201.758 59.1953 202.336 58.3984C202.93 57.6016 203.242 56.5625 203.273 55.2812V55.0703C203.273 53.7422 202.977 52.6797 202.383 51.8828C201.805 51.0859 201 50.6875 199.969 50.6875C198.938 50.6875 198.109 51.0859 197.484 51.8828ZM196.008 59.5C195.039 58.3438 194.555 56.8672 194.555 55.0703C194.555 53.2734 195.031 51.8203 195.984 50.7109C196.953 49.6016 198.195 49.0469 199.711 49.0469C201.227 49.0469 202.43 49.7656 203.32 51.2031L203.508 49.2812H205.148V61H203.508L203.297 59.0078C202.391 60.4922 201.195 61.2344 199.711 61.2344C198.211 61.2344 196.977 60.6562 196.008 59.5ZM207.258 61V59.1016H207.914C208.711 59.1016 209.305 58.5391 209.695 57.4141C210.102 56.2891 210.305 54.4453 210.305 51.8828V49.2812H218.273V61H216.398V51.0391H212.18V52.5156C212.18 55.5312 211.82 57.7031 211.102 59.0312C210.383 60.3438 209.344 61 207.984 61H207.258ZM223.43 59.2422H226.477C227.258 59.2422 227.859 59.0547 228.281 58.6797C228.703 58.3047 228.914 57.8281 228.914 57.25C228.914 56.7344 228.711 56.3125 228.305 55.9844C227.914 55.6562 227.281 55.4922 226.406 55.4922H223.43V59.2422ZM221.555 61V49.2812H223.43V53.7344H226.43C227.758 53.7344 228.836 54.0469 229.664 54.6719C230.508 55.2812 230.93 56.1406 230.93 57.25C230.93 58.3438 230.539 59.2422 229.758 59.9453C228.992 60.6484 227.977 61 226.711 61H221.555ZM233.508 61V49.2812H235.383V53.9688H241.711V49.2812H243.586V61H241.711V55.7266H235.383V61H233.508ZM246.867 61V49.2812H248.742V58.4453L254.977 49.2812H256.945V61H255.07V51.9297L248.883 61H246.867ZM260.227 61V49.2812H262.336L265.969 55.2578L269.602 49.2812H271.711V61H269.836V52.2812L266.578 57.6719H265.359L262.102 52.3281V61H260.227ZM104.449 83.3203H107.52C108.973 83.3203 109.699 82.7344 109.699 81.5625C109.699 80.5469 108.895 80.0391 107.285 80.0391H104.449V83.3203ZM104.449 88.2422H107.496C108.293 88.2422 108.895 88.0859 109.301 87.7734C109.723 87.4609 109.934 87.0312 109.934 86.4844C109.934 86 109.73 85.6094 109.324 85.3125C108.918 85 108.316 84.8438 107.52 84.8438H104.449V88.2422ZM102.574 90V78.2812H107.496C108.777 78.2812 109.801 78.5703 110.566 79.1484C111.332 79.7266 111.715 80.4922 111.715 81.4453C111.715 82.7109 110.988 83.5625 109.535 84C111.145 84.4375 111.949 85.3828 111.949 86.8359C111.949 87.7891 111.566 88.5547 110.801 89.1328C110.035 89.7109 109.012 90 107.73 90H102.574ZM113.355 90V88.1016H114.012C114.809 88.1016 115.402 87.5391 115.793 86.4141C116.199 85.2891 116.402 83.4453 116.402 80.8828V78.2812H124.371V90H122.496V80.0391H118.277V81.5156C118.277 84.5312 117.918 86.7031 117.199 88.0312C116.48 89.3438 115.441 90 114.082 90H113.355ZM129.879 80.8828C129.27 81.6797 128.965 82.7422 128.965 84.0703C128.965 85.3984 129.27 86.4844 129.879 87.3281C130.504 88.1719 131.332 88.5938 132.363 88.5938C133.363 88.5938 134.152 88.1953 134.73 87.3984C135.324 86.6016 135.637 85.5625 135.668 84.2812V84.0703C135.668 82.7422 135.371 81.6797 134.777 80.8828C134.199 80.0859 133.395 79.6875 132.363 79.6875C131.332 79.6875 130.504 80.0859 129.879 80.8828ZM128.402 88.5C127.434 87.3438 126.949 85.8672 126.949 84.0703C126.949 82.2734 127.426 80.8203 128.379 79.7109C129.348 78.6016 130.59 78.0469 132.105 78.0469C133.621 78.0469 134.824 78.7656 135.715 80.2031L135.902 78.2812H137.543V90H135.902L135.691 88.0078C134.785 89.4922 133.59 90.2344 132.105 90.2344C130.605 90.2344 129.371 89.6562 128.402 88.5ZM140.121 84.0703C140.121 82.1953 140.629 80.7266 141.645 79.6641C142.66 78.5859 143.988 78.0469 145.629 78.0469C147.254 78.0469 148.488 78.6016 149.332 79.7109C149.879 80.4453 150.152 81.2812 150.152 82.2188H148.16C148.16 81.5312 147.98 80.9766 147.621 80.5547C147.152 79.9766 146.449 79.6875 145.512 79.6875C144.543 79.6875 143.738 80.0781 143.098 80.8594C142.457 81.625 142.137 82.6953 142.137 84.0703C142.137 85.4609 142.457 86.5625 143.098 87.375C143.754 88.1875 144.559 88.5938 145.512 88.5938C146.449 88.5938 147.16 88.2969 147.645 87.7031C148.02 87.2344 148.207 86.6719 148.207 86.0156H150.199C150.199 87.0469 149.934 87.9062 149.402 88.5938C148.559 89.6875 147.301 90.2344 145.629 90.2344C144.004 90.2344 142.676 89.6797 141.645 88.5703C140.629 87.4609 140.121 85.9609 140.121 84.0703ZM152.777 90V78.2812H154.652V82.9688H160.98V78.2812H162.855V90H160.98V84.7266H154.652V90H152.777ZM166.137 90V78.2812H168.012V87.4453L174.246 78.2812H176.215V90H174.34V80.9297L168.152 90H166.137ZM179.496 90V78.2812H181.371V82.9688H182.613L186.691 78.2812H188.895L183.996 83.9297L189.082 90H186.645L182.238 84.7266H181.371V90H179.496ZM191.543 84.0703C191.543 85.3984 191.871 86.4844 192.527 87.3281C193.199 88.1719 194.082 88.5938 195.176 88.5938C196.27 88.5938 197.145 88.1719 197.801 87.3281C198.473 86.4844 198.809 85.3984 198.809 84.0703C198.809 82.7578 198.48 81.7031 197.824 80.9062C197.168 80.0938 196.285 79.6875 195.176 79.6875C194.066 79.6875 193.184 80.0938 192.527 80.9062C191.871 81.7031 191.543 82.7578 191.543 84.0703ZM191.098 88.5234C190.066 87.3672 189.551 85.8828 189.551 84.0703C189.551 82.2578 190.059 80.8047 191.074 79.7109C192.105 78.6016 193.473 78.0469 195.176 78.0469C196.879 78.0469 198.238 78.6016 199.254 79.7109C200.285 80.8047 200.801 82.2578 200.801 84.0703C200.801 85.8828 200.285 87.3672 199.254 88.5234C198.223 89.6641 196.863 90.2344 195.176 90.2344C193.488 90.2344 192.129 89.6641 191.098 88.5234ZM203.379 90V78.2812H205.488L209.121 84.2578L212.754 78.2812H214.863V90H212.988V81.2812L209.73 86.6719H208.512L205.254 81.3281V90H203.379ZM218.73 84.8438V74.1328H220.723V84.8438H218.73ZM218.309 88.7578C218.309 88.3203 218.449 87.9688 218.73 87.7031C219.012 87.4219 219.363 87.2812 219.785 87.2812C220.207 87.2812 220.559 87.4219 220.84 87.7031C221.121 87.9688 221.262 88.3203 221.262 88.7578C221.262 89.2109 221.121 89.5703 220.84 89.8359C220.559 90.1016 220.207 90.2344 219.785 90.2344C219.363 90.2344 219.012 90.1016 218.73 89.8359C218.449 89.5703 218.309 89.2109 218.309 88.7578Z" fill="#0C1B33"/>
<defs>
<clipPath id="clip0_1785_4891">
<rect width="16" height="21" fill="white" transform="matrix(4.37114e-08 1 1 -4.37114e-08 0 0)"/>
</clipPath>
</defs>
</svg>
